<svg width="16" height="16" viewBox="0 0 16 16" fill="none" xmlns="http://www.w3.org/2000/svg">
<path fill-rule="evenodd" clip-rule="evenodd" d="M2 4.33333C2 2.58319 2.01874 2 4.33333 2C6.64793 2 6.66667 2.58319 6.66667 4.33333C6.66667 6.08348 6.67405 6.66667 4.33333 6.66667C1.99262 6.66667 2 6.08348 2 4.33333Z" stroke="#292929" stroke-width="1.5" stroke-linecap="round" stroke-linejoin="round"/>
<path fill-rule="evenodd" clip-rule="evenodd" d="M9.33334 4.33333C9.33334 2.58319 9.35208 2 11.6667 2C13.9813 2 14 2.58319 14 4.33333C14 6.08348 14.0074 6.66667 11.6667 6.66667C9.32596 6.66667 9.33334 6.08348 9.33334 4.33333Z" stroke="#292929" stroke-width="1.5" stroke-linecap="round" stroke-linejoin="round"/>
<path fill-rule="evenodd" clip-rule="evenodd" d="M2 11.6666C2 9.91644 2.01874 9.33325 4.33333 9.33325C6.64793 9.33325 6.66667 9.91644 6.66667 11.6666C6.66667 13.4167 6.67405 13.9999 4.33333 13.9999C1.99262 13.9999 2 13.4167 2 11.6666Z" stroke="#292929" stroke-width="1.5" stroke-linecap="round" stroke-linejoin="round"/>
<path fill-rule="evenodd" clip-rule="evenodd" d="M9.33334 11.6666C9.33334 9.91644 9.35208 9.33325 11.6667 9.33325C13.9813 9.33325 14 9.91644 14 11.6666C14 13.4167 14.0074 13.9999 11.6667 13.9999C9.32596 13.9999 9.33334 13.4167 9.33334 11.6666Z" stroke="#292929" stroke-width="1.5" stroke-linecap="round" stroke-linejoin="round"/>
</svg>
