<svg width="195" height="52" viewBox="0 0 195 52" fill="none" xmlns="http://www.w3.org/2000/svg">
<path d="M0 38.6286L11.066 5.32808H18.9044L29.2532 38.6286H21.7734L18.9044 29.3044H7.32611L4.30345 38.6286H0ZM8.35074 26.0768H17.931L13.3714 10.4H13.269L8.35074 26.0768Z" fill="white"/>
<path d="M41.5932 39.1921C37.6654 39.1921 34.6428 38.065 32.5252 35.8108C30.4418 33.5567 29.4001 30.2778 29.4001 25.9744C29.4001 21.8076 30.493 18.5117 32.6789 16.0867C34.8648 13.6617 37.8874 12.4493 41.7469 12.4493C42.8057 12.4493 43.8815 12.603 44.9745 12.9103C46.1016 13.1836 47.0408 13.491 47.7922 13.8325C48.5436 14.1399 49.0218 14.3448 49.2267 14.4473L48.5607 17.7261C48.3899 17.6236 47.963 17.4358 47.2799 17.1626C46.5968 16.8552 45.8113 16.5649 44.9232 16.2916C44.0352 16.0184 43.2326 15.8818 42.5154 15.8818C41.2175 15.8818 40.1587 16.155 39.339 16.7015C38.5193 17.2479 37.8874 18.2555 37.4434 19.7241C36.9994 21.1586 36.7774 23.2079 36.7774 25.8719C36.7774 29.6631 37.2556 32.2588 38.2119 33.6591C39.1682 35.0594 40.5344 35.7596 42.3104 35.7596C43.5058 35.7596 44.5305 35.5034 45.3843 34.9911C46.2723 34.4447 46.9554 33.8811 47.4336 33.3005C47.9118 32.6857 48.1508 32.3271 48.1508 32.2246L50.5587 33.7616C50.5587 33.9665 50.2513 34.5301 49.6365 35.4522C49.0218 36.3402 48.0484 37.1941 46.7164 38.0138C45.3843 38.7993 43.6766 39.1921 41.5932 39.1921Z" fill="white"/>
<path d="M58.7706 39.1921C56.3798 39.1921 54.4671 38.5944 53.0326 37.399C51.5982 36.2036 50.8809 34.5642 50.8809 32.4808C50.8809 29.4752 52.2812 27.3064 55.0819 25.9744C57.9167 24.6082 61.2126 23.7714 64.9696 23.464V21.9783C64.9696 19.6558 64.6451 18.0677 63.9962 17.2138C63.3472 16.3258 62.2543 15.8818 60.7174 15.8818C60.0001 15.8818 59.1804 16.0184 58.2583 16.2916C57.3702 16.5649 56.5847 16.8552 55.9016 17.1626C55.2527 17.47 54.8257 17.6749 54.6208 17.7773L53.9548 14.4985C54.1597 14.3961 54.6379 14.1911 55.3893 13.8837C56.1748 13.5422 57.1482 13.2177 58.3095 12.9103C59.5049 12.603 60.7003 12.4493 61.8957 12.4493C65.1062 12.4493 67.5482 13.1323 69.2218 14.4985C70.9295 15.8305 71.7834 18.136 71.7834 21.4148V33.0443C71.7834 34.8545 72.142 35.7596 72.8592 35.7596C73.1325 35.7596 73.4569 35.7084 73.8326 35.6059C74.2083 35.5034 74.4645 35.4351 74.6011 35.401L74.806 38.065C74.6353 38.1333 74.2254 38.2529 73.5765 38.4236C72.9276 38.5944 72.1762 38.7652 71.3223 38.936C70.5026 39.1067 69.7683 39.1921 69.1193 39.1921C68.1289 39.1921 67.3604 38.953 66.8139 38.4749C66.2674 37.9626 65.9088 37.1429 65.7381 36.0158H65.4819C65.4819 36.1182 65.2428 36.4427 64.7647 36.9892C64.3206 37.5015 63.6034 37.9967 62.6129 38.4749C61.6225 38.953 60.3417 39.1921 58.7706 39.1921ZM61.0248 35.7596C61.8445 35.7596 62.5446 35.5547 63.1252 35.1448C63.74 34.735 64.2011 34.291 64.5085 33.8128C64.8159 33.3005 64.9696 33.0102 64.9696 32.9419V26.1793C62.6812 26.4184 60.9394 26.9649 59.744 27.8187C58.5827 28.6384 58.0021 29.9021 58.0021 31.6098C58.0021 32.976 58.2753 34.0177 58.8218 34.735C59.3683 35.4181 60.1026 35.7596 61.0248 35.7596Z" fill="white"/>
<path d="M86.6761 39.1921C84.5586 39.1921 82.6801 38.6627 81.0407 37.6039C79.4354 36.5452 78.1888 35.0594 77.3008 33.1468C76.4128 31.2 75.9688 28.9458 75.9688 26.3842C75.9688 23.6177 76.3957 21.1928 77.2495 19.1094C78.1034 16.9918 79.3159 15.3695 80.887 14.2424C82.4581 13.0811 84.2853 12.5005 86.3688 12.5005C87.7008 12.5005 88.8108 12.6542 89.6988 12.9616C90.5868 13.2348 91.2528 13.5422 91.6968 13.8837C92.1408 14.1911 92.3628 14.379 92.3628 14.4473H92.5165V0.40985L99.3303 0V38.6286H93.6436L92.8752 36.3232H92.8239C92.8239 36.4256 92.619 36.7159 92.2092 37.1941C91.7993 37.6722 91.1333 38.1333 90.2111 38.5773C89.3231 38.9872 88.1448 39.1921 86.6761 39.1921ZM88.2131 35.1961C89.0669 35.1961 89.8013 35.0253 90.416 34.6837C91.065 34.3422 91.5773 33.9665 91.953 33.5567C92.3287 33.1468 92.5165 32.9077 92.5165 32.8394V18.0847C92.4482 17.9823 92.2433 17.8115 91.9018 17.5724C91.5944 17.2992 91.1333 17.043 90.5185 16.8039C89.9379 16.5307 89.2548 16.3941 88.4692 16.3941C86.6249 16.3941 85.2929 17.1284 84.4732 18.597C83.6876 20.0657 83.2949 22.5931 83.2949 26.1793C83.2949 28.5701 83.4656 30.4145 83.8072 31.7123C84.1829 33.0102 84.7123 33.9153 85.3954 34.4276C86.1126 34.9399 87.0518 35.1961 88.2131 35.1961Z" fill="white"/>
<path d="M114.593 39.1921C110.802 39.1921 107.848 38.1504 105.73 36.067C103.647 33.9494 102.605 30.6877 102.605 26.2818C102.605 21.8417 103.63 18.4433 105.679 16.0867C107.728 13.6959 110.495 12.5005 113.979 12.5005C117.155 12.5005 119.614 13.508 121.356 15.5232C123.132 17.5041 124.02 20.356 124.02 24.0788C124.02 24.9327 123.952 25.6499 123.815 26.2305C123.713 26.8112 123.644 27.1698 123.61 27.3064H109.829C109.863 30.3803 110.307 32.5662 111.161 33.864C112.049 35.1278 113.466 35.7596 115.413 35.7596C116.574 35.7596 117.599 35.5205 118.487 35.0424C119.375 34.53 120.075 33.9836 120.587 33.403C121.1 32.7882 121.356 32.4466 121.356 32.3783L123.661 34.1714C123.661 34.308 123.303 34.8033 122.585 35.6571C121.902 36.511 120.878 37.3136 119.512 38.065C118.18 38.8164 116.54 39.1921 114.593 39.1921ZM117.667 23.9764V22.798C117.667 20.2023 117.394 18.3921 116.848 17.3675C116.301 16.3087 115.345 15.7793 113.979 15.7793C113.022 15.7793 112.254 16.0184 111.673 16.4966C111.127 16.9747 110.7 17.8115 110.392 19.0069C110.085 20.1681 109.897 21.8246 109.829 23.9764H117.667Z" fill="white"/>
<path d="M127.177 13.0128H132.659L133.53 15.3182H133.684C133.684 15.2499 133.991 14.9767 134.606 14.4985C135.221 13.9862 136.023 13.5251 137.014 13.1153C138.039 12.7054 139.183 12.5005 140.446 12.5005C141.847 12.5005 143.008 12.7225 143.93 13.1665C144.852 13.6105 145.57 14.2936 146.082 15.2158C146.663 14.7376 147.158 14.3619 147.568 14.0887C148.012 13.7813 148.746 13.4397 149.771 13.064C150.829 12.6883 152.025 12.5005 153.357 12.5005C155.782 12.5005 157.524 13.1494 158.582 14.4473C159.641 15.711 160.171 17.8115 160.171 20.7488V38.6286H153.357V21.2611C153.357 19.4167 153.135 18.2043 152.691 17.6236C152.281 17.0089 151.598 16.7015 150.641 16.7015C149.788 16.7015 149.053 16.9235 148.439 17.3675C147.824 17.7773 147.346 18.2043 147.004 18.6483C147.072 19.468 147.107 20.134 147.107 20.6463V38.6286H140.293V21.2611C140.293 19.4509 140.071 18.2384 139.627 17.6236C139.217 17.0089 138.551 16.7015 137.629 16.7015C136.741 16.7015 135.972 16.9235 135.323 17.3675C134.674 17.8115 134.23 18.2043 133.991 18.5458V38.6286H127.177V13.0128Z" fill="white"/>
<path d="M166.87 52C166.084 52 165.384 51.9317 164.769 51.7951C164.189 51.6926 163.745 51.5731 163.437 51.4365C163.13 51.334 162.942 51.2657 162.874 51.2315L163.437 47.2355C163.574 47.3038 163.916 47.4062 164.462 47.5429C165.008 47.7136 165.555 47.799 166.101 47.799C167.638 47.799 168.885 47.1842 169.841 45.9547C170.798 44.7593 171.856 42.6588 173.018 39.6532L162.105 13.0128H170.354L176.604 31.2512L181.881 13.0128H186.133L177.27 39.1921C176.211 42.0952 175.204 44.4519 174.247 46.2621C173.325 48.0723 172.266 49.4726 171.071 50.4631C169.875 51.4877 168.475 52 166.87 52Z" fill="white"/>
<path d="M190.662 39.4483C189.535 39.4483 188.579 39.0897 187.793 38.3724C186.973 37.5527 186.564 36.5452 186.564 35.3498C186.564 34.1544 186.973 33.1297 187.793 32.2759C188.579 31.5586 189.535 31.2 190.662 31.2C191.789 31.2 192.728 31.5586 193.48 32.2759C194.3 33.1297 194.709 34.1544 194.709 35.3498C194.709 36.5452 194.3 37.5527 193.48 38.3724C192.728 39.0897 191.789 39.4483 190.662 39.4483Z" fill="white"/>
</svg>
