<svg width="26" height="20" viewBox="0 0 26 20" fill="none" xmlns="http://www.w3.org/2000/svg">
<path fill-rule="evenodd" clip-rule="evenodd" d="M25.9167 10C25.9167 9.30965 25.357 8.75001 24.6667 8.75001H1.33333C0.642971 8.75001 0.0833282 9.30965 0.0833282 10C0.0833282 10.6904 0.642971 11.25 1.33333 11.25H24.6667C25.357 11.25 25.9167 10.6904 25.9167 10Z" fill="white"/>
<path fill-rule="evenodd" clip-rule="evenodd" d="M25.9167 1.66667C25.9167 0.976316 25.357 0.416672 24.6667 0.416672H1.33333C0.642971 0.416672 0.0833282 0.976316 0.0833282 1.66667C0.0833282 2.35703 0.642971 2.91667 1.33333 2.91667H24.6667C25.357 2.91667 25.9167 2.35703 25.9167 1.66667Z" fill="white"/>
<path fill-rule="evenodd" clip-rule="evenodd" d="M25.9167 18.3333C25.9167 17.643 25.357 17.0833 24.6667 17.0833H1.33333C0.642971 17.0833 0.0833282 17.643 0.0833282 18.3333C0.0833282 19.0237 0.642971 19.5833 1.33333 19.5833H24.6667C25.357 19.5833 25.9167 19.0237 25.9167 18.3333Z" fill="white"/>
</svg>
