<svg width="64" height="64" viewBox="0 0 64 64" fill="none" xmlns="http://www.w3.org/2000/svg">
<path fill-rule="evenodd" clip-rule="evenodd" d="M42.193 0.806875C42.4729 1.08662 42.4998 1.21163 42.4998 2.227C42.4998 3.25975 42.5352 3.41637 42.9888 4.389C43.9393 6.42712 44.7552 9.34763 45.2091 12.3369C45.4694 14.0504 45.507 18.8138 45.2731 20.4375C44.9998 22.3339 44.627 23.9718 43.9858 26.0916C41.9391 32.8593 41.1596 39.1623 41.6938 44.625C42.216 49.9643 41.8203 54.8813 40.4216 60.4373C39.6683 63.4291 39.5863 63.5 36.8806 63.5C34.8985 63.5 34.4062 63.393 34.1712 62.9109C34.1113 62.788 34.0316 57.85 33.994 51.9375C33.931 42.0281 33.9046 40.9969 33.6553 38.75C33.2667 35.2448 33.1242 32.2973 33.0418 26.0625C32.9745 20.967 32.951 20.5195 32.723 19.9776C32.5875 19.656 32.3705 19.2966 32.2406 19.1791C31.9288 18.897 31.6895 19.0886 31.2937 19.9375C31.0122 20.5413 31.0022 20.6733 30.9998 23.8125C30.9956 29.6192 30.7012 35.933 30.2452 40C30.0217 41.9939 30 43.0793 30 52.2626C29.9998 59.3138 29.9582 62.457 29.8613 62.7351C29.6313 63.3949 29.2545 63.5 27.1191 63.5C24.9838 63.5 24.71 63.4169 24.271 62.636C23.7447 61.6995 22.657 56.6838 22.3168 53.625C21.939 50.2266 21.95 48.7629 22.3923 43.594C22.7581 39.321 21.9493 32.7334 20.4245 27.5648C18.8291 22.1569 18.5647 20.5848 18.5745 16.5625C18.5818 13.489 18.7148 12.2399 19.3232 9.52437C19.7408 7.66 20.3565 5.78038 20.9965 4.4145C21.4662 3.41213 21.4998 3.266 21.4998 2.227C21.4998 1.21163 21.5268 1.08662 21.8067 0.806875L22.1135 0.5H31.9998H41.8862L42.193 0.806875ZM22.4998 2.25V3H31.9998H41.4998V2.25V1.5H31.9998H22.4998V2.25ZM21.8765 4.90625C21.2162 6.37725 20.5196 8.64713 20.1272 10.6064C19.0635 15.9168 19.3302 20.5708 21.006 25.9414C22.3097 30.12 23.057 34.1035 23.3735 38.5625C23.5481 41.0239 23.5298 42.5264 23.299 44.6875C23.0312 47.1935 23.0342 51.2894 23.3053 53.5625C23.6658 56.5836 24.7373 61.5182 25.1795 62.193C25.385 62.5066 25.3857 62.5068 27.1612 62.4721L28.9373 62.4375L29 51.5625C29.0345 45.5812 29.1027 40.6031 29.1517 40.5C29.2771 40.2363 29.5948 36.5446 29.7573 33.4641C29.8327 32.035 29.933 28.4631 29.9802 25.5266L30.066 20.1875L30.3893 19.5C30.5672 19.1219 30.8705 18.6566 31.0633 18.4662C31.94 17.6005 32.8975 17.9889 33.6121 19.5C33.9099 20.1294 33.9408 20.3486 33.9797 22.0938C34.0172 23.7712 34.0472 23.9996 34.2298 23.9966C34.5812 23.991 43.8843 22.0321 43.971 21.9456C44.3349 21.5818 44.6078 16.3444 44.3852 14C44.093 10.9229 43.1845 7.27063 42.1232 4.90625L41.7163 4H31.9998H22.2833L21.8765 4.90625ZM38.6873 24.1166L34.0623 25.0841L34.0236 25.542C33.9942 25.8885 34.0318 26 34.178 26C34.5392 26 43.4235 24.1264 43.5112 24.0318C43.5592 23.9799 43.637 23.7546 43.6841 23.5312C43.7565 23.1875 43.7345 23.1269 43.541 23.1371C43.4152 23.1437 41.2311 23.5846 38.6873 24.1166ZM38.3748 26.1806L34.0623 27.0821L34.0236 27.541C33.9942 27.888 34.0318 28 34.1775 28C34.5473 28 42.7938 26.2559 42.8795 26.1596C42.9268 26.1063 43.0267 25.8796 43.1012 25.6562C43.2273 25.2785 43.2176 25.251 42.9621 25.2645C42.811 25.2725 40.7467 25.6848 38.3748 26.1806ZM38.0937 28.235L34.1251 29.0625L34.125 29.5312C34.1248 29.7891 34.1817 30 34.2513 30C34.5713 30 42.1791 28.37 42.2586 28.2844C42.3081 28.2311 42.387 28.0046 42.4341 27.7812C42.5067 27.4368 42.485 27.3775 42.291 27.3913C42.1652 27.4001 40.2765 27.7799 38.0937 28.235ZM37.8312 30.2931L34.1001 31.0625L34.1792 32.5C34.3602 35.792 34.5247 37.9051 34.7191 39.4375C34.8906 40.7892 34.9367 42.8599 34.9937 51.75L35.0623 62.4375L36.8385 62.4721C38.614 62.5068 38.6147 62.5066 38.8202 62.193C39.2623 61.5182 40.3338 56.5841 40.6943 53.5625C40.964 51.3034 40.9662 47.204 40.6993 44.6875C40.3985 41.8521 40.4725 39.0269 40.9465 35.25C41.1307 33.7825 41.8006 30.0891 41.956 29.6839C42.0557 29.424 42.0197 29.4294 37.8312 30.2931Z" fill="#737373"/>
</svg>
