<svg width="64" height="64" viewBox="0 0 64 64" fill="none" xmlns="http://www.w3.org/2000/svg">
<path d="M54.0999 20.6264C51.3089 15.0643 49.4266 11.9656 48.5044 11.4168C47.7749 10.9852 46.5138 10.8642 44.1611 10.6708C42.3997 10.5267 40.209 10.3468 39.2271 9.96224L38.3012 9.6001L37.6606 10.3632C37.612 10.4192 35.2929 13.0714 32.0008 13.0714C28.6879 13.0714 26.3605 10.3901 26.3374 10.3625L25.693 9.60756L24.7724 9.96299C23.7905 10.3483 21.6005 10.5275 19.8399 10.6708C17.4864 10.8642 16.2245 10.9852 15.4973 11.416C14.5722 11.9656 12.6898 15.0643 9.90026 20.6264L9.6001 21.2237L9.86292 21.8397C12.3269 27.6287 18.1375 28.9018 18.3839 28.9534L19.1544 29.1139L18.3675 50.0524L18.3354 50.9125L19.0693 51.3419C26.0342 55.4195 37.9637 55.4195 44.9294 51.3419L45.6633 50.9125L45.6305 50.0524L44.8435 29.1139L45.6141 28.9534C45.8605 28.9018 51.671 27.6287 54.1358 21.8397L54.4001 21.2237L54.0999 20.6264ZM50.3412 22.8089C48.7441 24.8563 46.7796 25.989 44.4911 26.1861L43.2583 24.2313L44.2312 50.1061C37.4672 54.0658 26.533 54.0665 19.7682 50.1061L20.7404 24.2313L19.5502 26.1391C17.2631 25.942 15.2972 24.8078 13.7023 22.7626C12.9832 21.8285 12.3937 20.8015 11.9499 19.7094L11.9028 19.799C13.1176 17.4552 15.448 13.0953 16.2029 12.6466C17.122 12.1015 21.8044 12.1328 24.3893 11.5445C25.0824 12.2499 25.8434 12.8852 26.6614 13.441C27.4186 13.9538 28.2333 14.3761 29.0888 14.6992C30.123 15.083 31.1616 15.2771 32.183 15.2771H32.2129C33.4486 15.2711 34.662 14.9822 35.8208 14.4147C37.0998 13.789 38.3251 12.8123 39.472 11.5161C42.0271 12.1351 46.861 12.0918 47.7966 12.6466C48.5485 13.0946 50.8669 17.4268 52.0854 19.7766C51.6435 20.8615 51.0568 21.8815 50.3412 22.8089Z" fill="#737373"/>
</svg>
