<svg width="64" height="64" viewBox="0 0 64 64" fill="none" xmlns="http://www.w3.org/2000/svg">
<path d="M13.613 30.2016C13.2058 32.1651 12.8589 33.8037 12.8421 33.8432L12.7998 39.8258L12.981 40.0272L13.162 40.2285H26.6953C40.9265 40.2285 41.1401 40.2243 43.3687 39.9025C46.0717 39.5121 48.218 38.826 49.5392 37.9299C50.1088 37.5436 50.8101 36.8255 51.0187 36.4153C51.1059 36.2436 51.1874 36.1032 51.1998 36.1032L51.1188 33.0097C50.7985 32.1527 49.8331 31.3463 48.6052 30.9101C47.5545 30.5368 46.9106 30.4199 45.0055 30.2567C43.9372 30.1651 43.7521 30.1649 43.57 30.2549C43.2136 30.4311 43.1591 30.8149 43.4529 31.0789C43.6203 31.2292 43.759 31.2545 44.8975 31.3419C47.0368 31.5061 48.1563 31.7818 49.1321 32.3848L49.5896 32.6675L49.4117 32.849C49.1082 33.1585 48.2903 33.6363 47.5452 33.9393C46.2838 34.4524 44.7393 34.8247 42.6674 35.1151C41.6203 35.2619 41.2368 35.2693 32.4989 35.3114C27.5047 35.3356 23.4114 35.3622 23.4027 35.3705C23.1684 35.5953 23.0808 35.7313 23.0808 35.8703C23.0808 36.1314 23.204 36.2954 23.4657 36.3826C23.7728 36.4849 38.19 36.491 40.2284 36.3897C44.4578 36.1793 47.9605 35.3125 49.6948 34.0468C49.8753 33.9151 50.0395 33.8073 50.0599 33.8073C50.0801 33.8073 50.0967 34.2557 50.0967 34.8036V35.8L49.8528 36.1468C49.3616 36.8456 48.0977 37.5981 46.6105 38.0774C45.8839 38.3115 44.3311 38.6512 43.3092 38.7996C41.1714 39.11 40.9994 39.1134 27.152 39.1149L13.9255 39.1164V37.7909V36.4655L17.9383 36.4457L21.9511 36.426L22.1157 36.2686C22.3315 36.0623 22.3315 35.7136 22.1158 35.5072L21.9511 35.3498L17.9383 35.3295L13.9255 35.3092L13.9253 34.7914C13.9252 34.4257 14.1257 33.3153 14.608 31.0093C14.9835 29.2139 15.3036 27.7322 15.3193 27.7167C15.3349 27.7012 15.7791 27.8519 16.3063 28.0517C18.4349 28.8582 20.579 29.2874 22.4794 29.2874C23.5283 29.2874 24.2382 29.1448 25.0237 28.7765C26.2904 28.1826 27.3822 26.8424 27.8401 25.3194L27.9654 24.9028L28.5811 25.2194C28.9198 25.3935 29.6106 25.7407 30.1162 25.9909C30.6218 26.241 31.0355 26.4704 31.0355 26.5006C31.0355 26.5308 30.8498 26.8164 30.6228 27.1351C30.3958 27.4537 30.21 27.78 30.21 27.86C30.21 28.2178 30.5277 28.4657 30.8889 28.3899C31.0559 28.3548 31.2198 28.1945 31.5721 27.7214C31.827 27.3792 32.0576 27.0745 32.0844 27.0444C32.1279 26.9955 34.6593 28.2074 34.8114 28.3498C34.8451 28.3813 34.6846 28.671 34.4549 28.9935C34.2078 29.3406 34.0373 29.6575 34.0373 29.7698C34.0373 30.0382 34.3108 30.2918 34.6001 30.2918C34.8751 30.2918 34.9779 30.1956 35.5283 29.4232L35.9173 28.8774L36.8346 29.3063C38.5561 30.1111 41.144 30.9375 41.9427 30.9375C42.3652 30.9375 42.6421 30.5053 42.4451 30.1534C42.354 29.9907 42.1395 29.9102 41.2024 29.6873C39.866 29.3695 38.7058 28.9587 37.2466 28.2866L36.591 27.9847L36.7025 27.7787C36.9482 27.3244 36.7381 26.9198 36.2566 26.9198C36.0512 26.9198 35.9532 26.9733 35.7707 27.1851L35.5419 27.4504L34.3057 26.8443C32.6839 26.0492 32.7815 26.1252 32.9829 25.8136C33.1976 25.4815 33.1652 25.1514 32.8994 24.9626C32.7599 24.8634 32.6403 24.8348 32.5032 24.8676C32.3183 24.912 32.2183 24.9981 31.8833 25.4014L31.7441 25.569L29.8326 24.6187C28.7426 24.0767 27.5018 23.3959 26.9452 23.0341C26.213 22.5583 25.9084 22.3999 25.7258 22.3999C25.3157 22.3999 25.0735 22.7633 25.2276 23.1473C25.2526 23.2096 25.641 23.5038 26.0906 23.801C26.5402 24.0982 26.9081 24.3873 26.9081 24.4433C26.9081 24.4994 26.8117 24.8196 26.6938 25.1548C26.1337 26.7485 25.0571 27.789 23.636 28.1101C23.2384 28.2 22.9008 28.218 22.1803 28.1878C19.9829 28.0958 17.6472 27.5181 15.5238 26.5413C14.9443 26.2748 14.7013 26.2643 14.4816 26.4965C14.392 26.5911 14.1302 27.7079 13.613 30.2016Z" fill="#737373"/>
<path d="M56 32C56 45.2548 45.2548 56 32 56C18.7452 56 8 45.2548 8 32C8 18.7452 18.7452 8 32 8C45.2548 8 56 18.7452 56 32ZM9.2 32C9.2 44.5921 19.4079 54.8 32 54.8C44.5921 54.8 54.8 44.5921 54.8 32C54.8 19.4079 44.5921 9.2 32 9.2C19.4079 9.2 9.2 19.4079 9.2 32Z" fill="#737373"/>
<rect x="48.8003" y="15.2002" width="1.2" height="48" transform="rotate(45 48.8003 15.2002)" fill="#737373"/>
</svg>
