<svg width="64" height="64" viewBox="0 0 64 64" fill="none" xmlns="http://www.w3.org/2000/svg">
<path fill-rule="evenodd" clip-rule="evenodd" d="M13.6001 22.5508C13.6337 22.5133 14.2748 21.7887 15.0246 20.9408C16.8476 18.8791 19.0626 16.5128 19.8547 15.7808C20.654 15.0421 20.7677 15.029 21.2376 15.622C22.716 17.4877 23.9925 18.9003 26.8528 21.8356C29.1943 24.2386 34.0139 28.9644 35.0686 29.8913C37.4047 31.9446 39.8705 33.2943 42.786 34.1157C43.8158 34.4057 44.5906 34.5572 47.1962 34.978C48.2738 35.1521 49.2629 35.3488 49.396 35.4157C49.864 35.6508 50.2493 36.1046 50.4001 36.5983L50.354 37.7057C50.194 38.1407 49.9442 38.4171 49.3126 38.8579C47.3572 40.2225 45.1687 40.9122 42.786 40.9145C41.1232 40.9161 39.9511 40.6851 38.254 40.0215C37.7845 39.838 37.3794 39.6878 37.3539 39.6878C37.246 39.6878 38.4547 40.5139 39.2923 41.0127C40.8568 41.9445 41.9187 42.3862 44.9138 43.3511C46.0443 43.7153 47.1236 44.0959 47.3122 44.1968C47.9073 44.5154 48.2316 45.0762 48.2316 45.7871C48.2316 46.8228 47.7052 47.3519 46.0117 48.0189C44.4583 48.6306 43.1221 48.8522 41.3624 48.7898C39.1728 48.7122 37.5638 48.2066 35.4098 46.9194C34.1283 46.1536 33.2765 45.7587 31.8914 45.2882C30.2066 44.7159 28.7193 44.4796 26.0292 44.3568C24.1063 44.269 23.5347 44.1692 22.7967 43.7919C21.8987 43.3328 21.1242 42.5523 20.6851 41.6639C20.2833 40.8511 20.2321 40.5281 20.212 38.682C20.2019 37.7535 20.1538 36.7676 20.1051 36.491C19.8212 34.8783 19.3139 33.4899 18.5302 32.1807C18.1661 31.5725 17.6321 30.882 15.78 28.6247C14.8886 27.5382 14.1152 26.5614 14.0615 26.4543C13.926 26.1839 13.9972 26.0804 14.7441 25.4627C15.0928 25.1744 15.4195 24.901 15.4703 24.8554C15.5427 24.7901 15.3741 24.6046 14.6811 23.9867C14.1964 23.5545 13.7411 23.1383 13.6694 23.0616L13.6001 22.5508ZM16.4302 20.6866C17.24 19.7778 18.5161 18.4116 19.266 17.6505C20.0159 16.8894 20.6368 16.2752 20.6459 16.2856C20.8847 16.5596 21.5449 17.4313 21.5449 17.4724C21.5449 17.5036 21.2826 17.7869 20.962 18.1021C20.2498 18.8022 18.5148 20.6686 16.9387 22.4299L15.7645 23.7422L15.5714 23.5976C15.4651 23.518 15.2002 23.2927 14.9828 23.0968L14.5874 22.7407L14.7726 22.5398C14.8745 22.4293 15.6204 21.5953 16.4302 20.6866ZM20.9162 21.6848C19.6868 22.59 18.6081 23.4383 16.5872 25.0892L15.0555 26.3405L15.3807 26.7462C15.5596 26.9694 15.7792 27.2406 15.8687 27.3488L16.0315 27.5456L17.2195 26.5682C18.9914 25.1103 20.3045 24.0719 21.6064 23.0989C22.7046 22.2782 22.7688 22.2171 22.6904 22.0672C22.4363 21.5808 22.0358 20.938 21.9869 20.938C21.9558 20.938 21.474 21.2741 20.9162 21.6848ZM17.4753 23.1627C17.9833 22.5613 20.3757 19.9536 21.1873 19.1166L22.1523 18.1213L22.4016 18.3983C24.058 20.238 25.4801 21.7037 29.1876 25.392C33.4761 29.6583 34.6323 30.7486 35.7939 31.6215C37.7962 33.1264 40.0147 34.2261 42.506 34.9489C43.5041 35.2385 44.3036 35.3969 46.6808 35.7761C47.7916 35.9533 48.8048 36.1321 48.9324 36.1737C49.464 36.3466 49.7123 36.9403 49.4757 37.473C49.361 37.7311 49.2165 37.8678 48.667 38.2376C47.5058 39.019 46.0948 39.6065 44.7358 39.8741C43.9264 40.0336 42.2488 40.0869 41.4319 39.9792C40.4362 39.8478 39.7485 39.6565 38.3142 39.1117C37.6002 38.8404 36.7002 38.5302 36.3142 38.4222L35.6125 38.2257L35.0483 37.6098C34.1808 36.6627 33.6687 36.0196 31.9551 33.7252C27.104 27.2301 24.147 22.9626 22.8805 20.6287C22.6917 20.2807 22.4619 19.9469 22.37 19.8869C22.22 19.789 22.1782 19.7895 21.964 19.8916C21.5711 20.0788 19.9778 21.2583 17.6501 23.0853C17.4198 23.2659 17.369 23.2885 17.4753 23.1627ZM21.0946 38.2582C21.0613 40.2292 21.1068 40.551 21.5352 41.376C22.0232 42.3155 22.9481 43.039 24.0038 43.3072C24.2257 43.3635 24.9429 43.433 25.5978 43.4615L26.7883 43.5134L26.8345 43.2349C26.9698 42.4188 26.8514 41.3339 26.5413 40.5498C25.7824 38.6308 24.008 37.3785 21.8875 37.2652L21.1122 37.2237L21.0946 38.2582ZM16.6168 28.2427C16.5872 28.1674 20.4173 25.0785 22.0796 23.837C22.6781 23.39 23.1908 23.0236 23.219 23.0228C23.2473 23.022 23.6708 23.6275 24.1601 24.3683C26.388 27.7409 32.2768 35.7684 33.9036 37.6504C35.6006 39.6134 37.8338 41.3257 40.2374 42.5068C41.4907 43.1226 42.1797 43.3832 44.8599 44.2552C45.9011 44.594 46.8276 44.919 46.9187 44.9773C47.3857 45.2764 47.5027 46.0287 47.142 46.4143C46.936 46.6345 46.0966 47.0654 45.3465 47.3359C43.179 48.1176 40.6522 48.1464 38.4562 47.4146C37.5959 47.1278 36.9628 46.8235 35.8772 46.1747C33.507 44.7582 30.7989 43.854 28.1773 43.6038L27.7054 43.5588L27.735 42.6741C27.7561 42.0407 27.7313 41.6262 27.6476 41.2146C27.1907 38.9687 25.4897 37.1857 23.2038 36.5566C22.9856 36.4965 22.3939 36.4283 21.8888 36.4051L20.9706 36.3627L20.9258 36.1036C20.8196 35.4893 20.5052 34.3609 20.2748 33.7667C19.6924 32.2647 19.0302 31.2095 17.4823 29.3173C17.0132 28.7437 16.6237 28.2602 16.6168 28.2427Z" fill="#737373"/>
</svg>
