<svg width="40" height="38" viewBox="0 0 40 38" fill="none" xmlns="http://www.w3.org/2000/svg">
<path d="M21.8726 1.56104C18.637 1.0611 15.3229 1.4439 12.2974 2.66646C9.27189 3.88898 6.6542 5.90294 4.73222 8.48358C2.81036 11.0641 1.65857 14.1111 1.40231 17.2875C1.14605 20.464 1.79507 23.6484 3.27882 26.4891C4.76264 29.33 7.02413 31.7176 9.81524 33.3862C12.6065 35.0548 15.8178 35.9387 19.094 35.9387C19.4661 35.9387 19.7678 36.2404 19.7678 36.6125C19.7678 36.9847 19.4661 37.2864 19.094 37.2864C15.576 37.2864 12.1255 36.3374 9.12372 34.5429C6.12187 32.7484 3.6849 30.1777 2.08424 27.1131C0.483506 24.0483 -0.217828 20.6102 0.058974 17.1791C0.335773 13.7482 1.57971 10.4602 3.65135 7.67858C5.72288 4.89714 8.54092 2.73079 11.7924 1.41692C15.0439 0.103095 18.6035 -0.307756 22.0784 0.229142C25.5533 0.766047 28.8101 2.23014 31.4882 4.4615C33.7612 6.35535 35.5425 8.73954 36.6957 11.418L38.7234 7.36512C38.8899 7.03229 39.2947 6.89746 39.6275 7.06398C39.9603 7.23049 40.0952 7.63529 39.9286 7.96811L37.2152 13.3919C37.0487 13.7247 36.6439 13.8595 36.311 13.693L30.8873 10.9795C30.5545 10.813 30.4196 10.4082 30.5861 10.0754C30.7527 9.74256 31.1574 9.60773 31.4903 9.77425L35.3497 11.7051C34.2791 9.3226 32.6672 7.19795 30.6255 5.49691C28.1373 3.42379 25.1082 2.06096 21.8726 1.56104Z" fill="url(#paint0_linear_1343_17144)"/>
<path d="M27.4032 19.0924C27.4032 19.4646 27.1015 19.7663 26.7294 19.7663H18.4186V9.20929C18.4186 8.83713 18.7203 8.53544 19.0924 8.53544C19.4646 8.53544 19.7663 8.83713 19.7663 9.20929V18.4186H26.7294C27.1015 18.4186 27.4032 18.7203 27.4032 19.0924Z" fill="url(#paint1_linear_1343_17144)"/>
<path fill-rule="evenodd" clip-rule="evenodd" d="M26.328 32.3008C26.6086 32.3999 26.9222 32.4494 27.2689 32.4494C27.7229 32.4494 28.1356 32.371 28.507 32.2142C28.8784 32.0491 29.1962 31.7932 29.4603 31.4466C29.7244 31.0916 29.9308 30.6336 30.0793 30.0723C30.2279 29.5028 30.3022 28.8136 30.3022 28.0047V27.2866C30.3022 26.6263 30.2279 26.065 30.0793 25.6028C29.939 25.1324 29.7368 24.7486 29.4727 24.4514C29.2168 24.1543 28.9073 23.9355 28.5441 23.7952C28.181 23.6549 27.7765 23.5848 27.3308 23.5848C26.9264 23.5848 26.5508 23.6508 26.2042 23.7828C25.8575 23.9149 25.5562 24.1047 25.3004 24.3524C25.0445 24.6 24.8423 24.9012 24.6937 25.2562C24.5534 25.6028 24.4832 25.9908 24.4832 26.42V26.6428C24.4832 27.5425 24.7267 28.2399 25.2137 28.7352C25.7089 29.2304 26.394 29.478 27.2689 29.478C27.6568 29.478 28.0076 29.4079 28.3213 29.2675C28.6197 29.1298 29.084 29.344 29.0162 29.6656C28.9971 29.7564 28.9759 29.8424 28.9527 29.9237C28.8536 30.2704 28.7216 30.551 28.5565 30.7656C28.3997 30.972 28.2098 31.1205 27.987 31.2113C27.7724 31.2939 27.533 31.3351 27.2689 31.3351C26.8975 31.3351 26.6086 31.2485 26.4022 31.0751C26.3094 30.9934 26.2282 30.905 26.1587 30.8099C26.0062 30.601 25.7846 30.4313 25.5259 30.4313C25.1231 30.4313 24.8267 30.8161 25.0169 31.1711C25.0286 31.1929 25.0406 31.2146 25.0527 31.2361C25.1931 31.4837 25.3705 31.6983 25.5851 31.8799C25.7997 32.0615 26.0473 32.2018 26.328 32.3008ZM28.6184 27.918C28.313 28.2152 27.8879 28.3637 27.3432 28.3637C26.8397 28.3637 26.4394 28.2152 26.1422 27.918C25.8451 27.6126 25.6965 27.1876 25.6965 26.6428V26.42C25.6965 25.8835 25.841 25.4625 26.1299 25.1571C26.427 24.8517 26.8273 24.699 27.3308 24.699C27.8425 24.699 28.2635 24.8517 28.5936 25.1571C28.9238 25.4543 29.0889 25.8958 29.0889 26.4819V26.7047C29.0889 27.2165 28.9321 27.6209 28.6184 27.918Z" fill="url(#paint2_linear_1343_17144)"/>
<path fill-rule="evenodd" clip-rule="evenodd" d="M32.8369 32.2265C33.2083 32.3751 33.621 32.4494 34.0749 32.4494C34.5207 32.4494 34.9251 32.3751 35.2883 32.2265C35.6597 32.0697 35.9733 31.8304 36.2292 31.5085C36.4933 31.1783 36.6955 30.7574 36.8359 30.2456C36.9762 29.7256 37.0463 29.1025 37.0463 28.3761V27.658C37.0463 26.9234 36.9762 26.3003 36.8359 25.7885C36.6955 25.2685 36.4975 24.8476 36.2416 24.5257C35.9857 24.1955 35.6721 23.9562 35.3006 23.8076C34.9375 23.659 34.5289 23.5848 34.0749 23.5848C33.6292 23.5848 33.2207 23.6632 32.8493 23.82C32.4861 23.9686 32.1724 24.2079 31.9083 24.5381C31.6524 24.86 31.4543 25.2809 31.314 25.8009C31.1737 26.3127 31.1036 26.9317 31.1036 27.658V28.3761C31.1036 29.1107 31.1737 29.738 31.314 30.258C31.4543 30.7697 31.6524 31.1907 31.9083 31.5208C32.1642 31.8427 32.4737 32.078 32.8369 32.2265ZM34.8054 31.1989C34.5908 31.2897 34.3473 31.3351 34.0749 31.3351C33.8108 31.3351 33.5673 31.2897 33.3445 31.1989C33.1299 31.0999 32.9442 30.9348 32.7873 30.7037C32.6388 30.4726 32.5232 30.1713 32.4407 29.7999C32.3581 29.4202 32.3169 28.9456 32.3169 28.3761V27.658C32.3169 27.0885 32.3581 26.6139 32.4407 26.2342C32.5232 25.8546 32.6388 25.5533 32.7873 25.3304C32.9359 25.0993 33.1175 24.9384 33.3321 24.8476C33.555 24.7486 33.8026 24.699 34.0749 24.699C34.3391 24.699 34.5784 24.7486 34.793 24.8476C35.0159 24.9384 35.2016 25.0993 35.3502 25.3304C35.507 25.5616 35.6267 25.8669 35.7092 26.2466C35.7918 26.618 35.833 27.0885 35.833 27.658V28.3761C35.833 28.9456 35.7918 29.4202 35.7092 29.7999C35.6267 30.1796 35.5111 30.485 35.3625 30.7161C35.214 30.9389 35.0283 31.0999 34.8054 31.1989Z" fill="url(#paint3_linear_1343_17144)"/>
<defs>
<linearGradient id="paint0_linear_1343_17144" x1="0.224617" y1="19.0924" x2="39.7572" y2="19.0924" gradientUnits="userSpaceOnUse">
<stop stop-color="#FFC7C4"/>
<stop offset="1" stop-color="#F27A74"/>
</linearGradient>
<linearGradient id="paint1_linear_1343_17144" x1="0.224617" y1="19.0924" x2="39.7572" y2="19.0924" gradientUnits="userSpaceOnUse">
<stop stop-color="#FFC7C4"/>
<stop offset="1" stop-color="#F27A74"/>
</linearGradient>
<linearGradient id="paint2_linear_1343_17144" x1="0.224617" y1="19.0924" x2="39.7572" y2="19.0924" gradientUnits="userSpaceOnUse">
<stop stop-color="#FFC7C4"/>
<stop offset="1" stop-color="#F27A74"/>
</linearGradient>
<linearGradient id="paint3_linear_1343_17144" x1="0.224617" y1="19.0924" x2="39.7572" y2="19.0924" gradientUnits="userSpaceOnUse">
<stop stop-color="#FFC7C4"/>
<stop offset="1" stop-color="#F27A74"/>
</linearGradient>
</defs>
</svg>
