<svg width="40" height="40" viewBox="0 0 40 40" fill="none" xmlns="http://www.w3.org/2000/svg">
<path fill-rule="evenodd" clip-rule="evenodd" d="M21.1412 4.2202C23.2608 4.38739 24.9065 4.82083 26.758 5.69934C28.5212 6.53606 29.7725 7.42028 31.1792 8.82341C34.9423 12.5772 36.5625 17.9374 35.5072 23.1423C34.6461 27.3897 32.02 31.1677 28.3377 33.4568C24.3831 35.9152 19.433 36.4876 14.983 35.001C11.4974 33.8365 8.47895 31.4532 6.54387 28.3376C3.73833 23.8204 3.41387 18.0336 5.69747 13.2423C6.54114 11.4722 7.4227 10.2254 8.82348 8.82114C11.7388 5.89864 15.5067 4.29763 19.8131 4.15161C19.9894 4.14567 20.5871 4.17653 21.1412 4.2202ZM18.1853 5.94224C14.6767 6.42575 11.4139 8.207 9.19715 10.849C7.62817 12.719 6.56848 14.9278 6.08114 17.3439C5.92356 18.125 5.89989 18.4718 5.89989 20.0001C5.89989 21.5284 5.92356 21.8753 6.08114 22.6564C6.54317 24.9469 7.67481 27.3582 9.0452 28.9722L9.39958 29.3896L19.3914 19.4018L29.3831 9.41419L29.0081 9.07645C27.9983 8.16731 26.0852 7.10794 24.4924 6.57591C22.9641 6.06552 22.0797 5.92263 20.2736 5.89427C19.4143 5.88083 18.4745 5.90239 18.1853 5.94224ZM20.5995 20.6118L10.6203 30.5912L10.8376 30.7909C11.7988 31.6743 13.6294 32.7468 15.1072 33.2923C17.7028 34.2504 20.866 34.4079 23.5422 33.7123C29.2056 32.2405 33.3773 27.4478 34.0642 21.624C34.1828 20.6182 34.1275 18.5298 33.9581 17.6173C33.5066 15.1856 32.6199 13.1886 31.1294 11.2466C30.9465 11.0083 30.7479 10.7726 30.6879 10.7228C30.5993 10.6494 28.6927 12.5183 20.5995 20.6118Z" fill="#737373"/>
</svg>
